<svg xmlns="http://www.w3.org/2000/svg" viewBox="0 0 19.55 20"><defs><style>.cls-1{fill:#3e8c54;}</style></defs><title>Asset 5</title><g id="Layer_2" data-name="Layer 2"><g id="Layer_1-2" data-name="Layer 1"><path d="M2.27.91A2.27,2.27,0,0,0,0,3.18V17.73A2.27,2.27,0,0,0,2.27,20H16.82a2.27,2.27,0,0,0,2.27-2.27V3.3l-.91,1V17.73a1.35,1.35,0,0,1-1.36,1.36H2.27A1.35,1.35,0,0,1,.91,17.73V3.18A1.35,1.35,0,0,1,2.27,1.82h12.8l.84-.91H2.27ZM4.83,9.09C3.14,9.09,2,10,2,11.38c0,1.12.67,1.82,2,2.15l1,.25c1,.25,1.45.59,1.45,1.21s-.7,1.2-1.66,1.2S3.1,15.75,3,15H1.82c.08,1.37,1.24,2.27,2.93,2.27s3-.91,3-2.41c0-1.16-.66-1.82-2.23-2.2l-.87-.21c-1-.24-1.41-.54-1.41-1.12s.62-1.16,1.57-1.16a1.52,1.52,0,0,1,1.66,1.16H7.6C7.56,10,6.41,9.09,4.83,9.09Zm7,2.27a2.69,2.69,0,0,0-2.77,3,2.65,2.65,0,0,0,2.77,2.93,2.41,2.41,0,0,0,2.6-1.64H13.31a1.45,1.45,0,0,1-1.41.68,1.65,1.65,0,0,1-1.62-1.71v-.08h4.27v-.3A2.57,2.57,0,0,0,11.86,11.36Zm0,.94a1.39,1.39,0,0,1,1.48,1.34h-3A1.45,1.45,0,0,1,11.86,12.3Z"/><polygon class="cls-1" points="17.99 0 11.61 6.91 8.29 3.82 6.82 5.37 11.69 10 19.55 1.46 17.99 0"/></g></g></svg>